<?xml version="1.0" standalone="no"?>
<!DOCTYPE svg PUBLIC "-//W3C//DTD SVG 20010904//EN"
 "http://www.w3.org/TR/2001/REC-SVG-20010904/DTD/svg10.dtd">
<svg version="1.0" xmlns="http://www.w3.org/2000/svg"
 width="100.000000pt" height="45.000000pt" viewBox="0 0 100.000000 45.000000"
 preserveAspectRatio="xMidYMid meet">

<g transform="translate(0.000000,45.000000) scale(0.100000,-0.100000)"
fill="#000000" stroke="none">
<path d="M33 426 l-28 -24 0 -180 c0 -163 2 -182 19 -201 19 -21 25 -21 413
-21 380 0 394 1 413 20 19 19 20 33 20 199 0 161 -2 181 -19 202 l-19 24 -385
3 -385 3 -29 -25z m350 -130 c50 -46 45 -153 -10 -195 -34 -27 -83 -27 -112 0
-32 30 -14 45 34 28 35 -13 38 -12 56 10 21 26 28 64 7 43 -21 -21 -77 -14
-103 13 -76 75 50 174 128 101z m230 0 c50 -46 45 -153 -10 -195 -34 -27 -83
-27 -112 0 -32 30 -14 45 34 28 35 -13 38 -12 56 10 21 26 28 64 7 43 -21 -21
-77 -14 -103 13 -76 75 50 174 128 101z"/>
<path d="M286 265 c-28 -29 9 -64 53 -50 41 13 26 65 -19 65 -10 0 -25 -7 -34
-15z"/>
<path d="M516 265 c-28 -29 9 -64 53 -50 41 13 26 65 -19 65 -10 0 -25 -7 -34
-15z"/>
<path d="M920 219 c0 -107 1 -108 47 -66 12 11 25 32 28 48 8 36 -18 93 -50
107 l-25 12 0 -101z"/>
</g>
</svg>
