<svg xmlns="http://www.w3.org/2000/svg" width="22" height="15.826" viewBox="0 0 22 15.826">
  <g id="Wifi" transform="translate(-5.347 -11.793)">
    <path id="Path_4889" data-name="Path 4889" d="M24.281,21.008A10.36,10.36,0,0,0,16.888,18a10.36,10.36,0,0,0-7.395,3.008l1.844,1.844a7.982,7.982,0,0,1,11.1,0l1.844-1.844Z" transform="translate(-0.542 -0.812)" fill="#000"/>
    <path id="Path_4890" data-name="Path 4890" d="M27.347,16.265a15.764,15.764,0,0,0-22,0l1.844,1.844a13.122,13.122,0,0,1,18.312,0Z" fill="#000"/>
    <path id="Path_4891" data-name="Path 4891" d="M20.215,26.608A2.608,2.608,0,1,1,17.608,24,2.608,2.608,0,0,1,20.215,26.608Z" transform="translate(-1.262 -1.596)" fill="#000"/>
  </g>
</svg>
